<svg width="64" height="64" viewBox="0 0 64 64" fill="none" xmlns="http://www.w3.org/2000/svg">
<g clip-path="url(#clip0_158_472)">
<path fill-rule="evenodd" clip-rule="evenodd" d="M2.38782 29.8867C18.4947 43.9164 39.5725 39.3584 56.1177 28.2378C56.4023 28.0473 56.7887 28.1224 56.9792 28.4069C57.1697 28.6915 57.0946 29.0779 56.8101 29.2684C39.8022 40.7013 18.1299 45.2451 1.57197 30.8221C1.31356 30.5979 1.28686 30.2059 1.51222 29.9464C1.73639 29.688 2.12839 29.6614 2.38782 29.8867Z" fill="#4E3B31"/>
<path fill-rule="evenodd" clip-rule="evenodd" d="M56.1535 28.9619C55.066 29.0465 53.7024 29.1679 53.5473 29.1772C49.3428 29.4281 45.3248 29.0134 41.2283 27.9971C40.8957 27.915 40.6927 27.5773 40.7747 27.2447C40.8568 26.9121 41.1945 26.7091 41.5271 26.7911C45.4992 27.7779 49.3959 28.1812 53.4742 27.9373C53.7119 27.9232 56.7772 27.6485 57.4011 27.6395C57.6571 27.6346 57.8034 27.7114 57.8362 27.7328C58.0147 27.8397 58.0859 27.9829 58.119 28.1032C58.1552 28.2393 58.1603 28.4786 57.998 28.7417C57.827 29.0164 57.3348 29.4966 57.2203 29.6278C55.4988 31.6128 53.4045 33.6782 51.8588 35.9788C50.3846 38.1727 49.4083 40.5834 49.8413 43.3641C49.8943 43.7026 49.6612 44.0203 49.3227 44.0733C48.9843 44.1263 48.6665 43.8932 48.6135 43.5547C48.13 40.4458 49.1801 37.7384 50.8273 35.2867C52.3642 32.9998 54.426 30.9375 56.1535 28.9619Z" fill="#4E3B31"/>
</g>
<defs>
<clipPath id="clip0_158_472">
<rect width="44.9515" height="44.9515" fill="white" transform="matrix(-0.75892 0.651184 0.651184 0.75892 34.1147 0)"/>
</clipPath>
</defs>
</svg>
